<svg width="131" height="38" viewBox="0 0 131 38" fill="none" xmlns="http://www.w3.org/2000/svg">
<g clip-path="url(#clip0_130104_141)">
<path d="M28.4997 9.49984H25.333C25.333 6.00067 22.4988 3.1665 18.9997 3.1665C15.5005 3.1665 12.6663 6.00067 12.6663 9.49984H9.49967C7.75801 9.49984 6.33301 10.9248 6.33301 12.6665V31.6665C6.33301 33.4082 7.75801 34.8332 9.49967 34.8332H28.4997C30.2413 34.8332 31.6663 33.4082 31.6663 31.6665V12.6665C31.6663 10.9248 30.2413 9.49984 28.4997 9.49984ZM18.9997 6.33317C20.7413 6.33317 22.1663 7.75817 22.1663 9.49984H15.833C15.833 7.75817 17.258 6.33317 18.9997 6.33317ZM28.4997 31.6665H9.49967V12.6665H12.6663V15.8332C12.6663 16.704 13.3788 17.4165 14.2497 17.4165C15.1205 17.4165 15.833 16.704 15.833 15.8332V12.6665H22.1663V15.8332C22.1663 16.704 22.8788 17.4165 23.7497 17.4165C24.6205 17.4165 25.333 16.704 25.333 15.8332V12.6665H28.4997V31.6665Z" fill="#002F52"/>
</g>
<path d="M115 3C106.168 3 99 10.168 99 19C99 27.832 106.168 35 115 35C123.832 35 131 27.832 131 19C131 10.168 123.832 3 115 3ZM107.112 29.048C107.8 27.608 111.992 26.2 115 26.2C118.008 26.2 122.216 27.608 122.888 29.048C120.712 30.776 117.976 31.8 115 31.8C112.024 31.8 109.288 30.776 107.112 29.048ZM125.176 26.728C122.888 23.944 117.336 23 115 23C112.664 23 107.112 23.944 104.824 26.728C103.192 24.584 102.2 21.912 102.2 19C102.2 11.944 107.944 6.2 115 6.2C122.056 6.2 127.8 11.944 127.8 19C127.8 21.912 126.808 24.584 125.176 26.728ZM115 9.4C111.896 9.4 109.4 11.896 109.4 15C109.4 18.104 111.896 20.6 115 20.6C118.104 20.6 120.6 18.104 120.6 15C120.6 11.896 118.104 9.4 115 9.4ZM115 17.4C113.672 17.4 112.6 16.328 112.6 15C112.6 13.672 113.672 12.6 115 12.6C116.328 12.6 117.4 13.672 117.4 15C117.4 16.328 116.328 17.4 115 17.4Z" fill="#002F52"/>
<defs>
<clipPath id="clip0_130104_141">
<rect width="38" height="38" fill="white"/>
</clipPath>
</defs>
</svg>
